<svg width="160" height="160" viewBox="0 0 160 160" fill="none" xmlns="http://www.w3.org/2000/svg">
<path fill-rule="evenodd" clip-rule="evenodd" d="M84.8 0H75.2V32L77.76 74.88L49.28 42.56L26.88 20.16L20.16 26.88L42.88 49.6L75.2 78.08L32 75.2H0V84.8H32L74.88 82.24L42.56 110.72L19.84 133.44L26.56 140.16L49.28 117.44L77.76 85.12L75.2 128V160H84.8V128L82.24 85.12L110.72 117.44L133.44 140.16L140.16 133.44L117.44 110.72L85.12 82.24L128 84.8H160V75.2H128L85.12 77.76L117.44 49.28L140.16 26.56L133.44 19.84L110.72 42.56L82.24 74.88L84.8 32V0Z" fill="#F84D35"/>
</svg>
